# xmcd CD database file
#
# Track frame offsets:
#	150
#	7235
#	25847
#	45043
#	63013
#	80746
#	97973
#	117572
#	137231
#	156424
#	172600
#	189665
#	204562
#	222290
#	230867
#
# Disc length: 3325 seconds
#
# Revision: 0
# Processed by: cddbd v1.5.1PL0 Copyright (c) Steve Scherf et al.
# Submitted via: CDex 1.51
#
DISCID=cb0cfb0f
DTITLE=おニャン子クラブ - おニャン子クラブ大全集 下 DISC2：○ Circle(?)
DYEAR=2005
DGENRE=JPop
TTITLE0=サークル(opening)
TTITLE1=プリズム
TTITLE2=蒼いスケッチ
TTITLE3=恋のミスマッチ
TTITLE4=圧巻！FLASH UP
TTITLE5=ONE WAY ROAD
TTITLE6=寒い8月
TTITLE7=こんな空の下で
TTITLE8=季節のノック
TTITLE9=次のページを開いて
TTITLE10=風に抱かれて
TTITLE11=ちょっとほの気のタイミング
TTITLE12=雲の上はいつも
TTITLE13=サークル(ending)
TTITLE14=雲の上はいつも(No-Cross Fade Version)
EXTD=YEAR: 2005
EXTT0=
EXTT1=
EXTT2=
EXTT3=
EXTT4=
EXTT5=
EXTT6=
EXTT7=
EXTT8=
EXTT9=
EXTT10=
EXTT11=
EXTT12=
EXTT13=
EXTT14=
PLAYORDER=
